<svg width="512" height="512" viewBox="0 0 512 512" fill="none" xmlns="http://www.w3.org/2000/svg">
  <rect width="512" height="512" rx="112" fill="#000000"/>
  <circle cx="210" cy="256" r="168" fill="#FBBF24"/>
  <circle cx="210" cy="256" r="136" stroke="#000000" stroke-width="12"/>
  <circle cx="210" cy="256" r="196" stroke="#FCD34D" stroke-width="24"/>
  <path d="M304 92C366 110 416 156 440 214H396C374 170 338 136 292 116L304 92Z" fill="#F59E0B"/>
  <path d="M338 132C374 150 404 178 422 214H380C366 190 346 168 320 152L338 132Z" fill="#FBBF24"/>
  <path d="M364 184C382 198 396 214 406 236H366C360 226 352 218 342 210L364 184Z" fill="#F59E0B"/>
  <path d="M382 242C390 252 396 266 400 282H362C360 274 356 266 350 258L382 242Z" fill="#FBBF24"/>
  <path d="M386 310C380 322 370 334 356 348H370C380 338 388 326 394 312L386 310Z" fill="#F59E0B"/>
  <path d="M360 368C344 386 320 404 288 418L294 392C316 382 334 370 348 356L360 368Z" fill="#FBBF24"/>
  <g fill="none" stroke="#000000" stroke-width="14" stroke-linejoin="round" stroke-linecap="round">
    <path d="M210 124L300 176L210 228L120 176L210 124Z"/>
    <path d="M120 176V274L210 326L300 274V176"/>
    <path d="M210 228L210 326"/>
    <path d="M154 198L210 230L266 198"/>
    <path d="M154 250L210 282L266 250"/>
    <path d="M154 198V250"/>
    <path d="M266 198V250"/>
    <path d="M170 296L210 320L250 296"/>
  </g>
</svg>
